<?xml version="1.0" standalone="no"?><!DOCTYPE svg PUBLIC "-//W3C//DTD SVG 1.1//EN" "http://www.w3.org/Graphics/SVG/1.1/DTD/svg11.dtd"><svg t="1682784469408" class="icon" viewBox="0 0 1099 1024" version="1.1" xmlns="http://www.w3.org/2000/svg" p-id="728" xmlns:xlink="http://www.w3.org/1999/xlink" width="214.6484375" height="200"><path d="M949.76 363.178667H148.062815c-70.561185 0-127.905185-55.561481-127.905185-123.866074 0-13.084444 10.695111-23.798519 23.798518-23.798519 13.084444 0 23.798519 10.714074 23.798519 23.798519 0 42.002963 36.02963 76.269037 80.308148 76.269037h801.697185c44.259556 0 80.308148-34.133333 80.308148-76.269037 0-13.084444 10.714074-23.798519 23.798519-23.798519s23.798519 10.714074 23.798518 23.798519c0 68.304593-57.344 123.866074-127.905185 123.866074z" fill="#000000" p-id="729"></path><path d="M120.794074 1007.350519c-13.084444 0-23.779556-10.714074-23.779555-23.798519V341.997037c0-13.084444 10.714074-23.798519 23.798518-23.798518s23.798519 10.714074 23.798519 23.798518v641.554963c0 13.084444-10.714074 23.798519-23.798519 23.798519z m856.329482 0c-13.084444 0-23.798519-10.714074-23.798519-23.798519V341.997037c0-13.084444 10.714074-23.798519 23.798519-23.798518s23.798519 10.714074 23.798518 23.798518v641.554963c0 13.084444-10.714074 23.798519-23.798518 23.798519zM864.919704 814.838519c-13.084444 0-23.798519-10.714074-23.798519-23.798519V343.552c0-13.084444 10.714074-23.798519 23.798519-23.798519s23.798519 10.695111 23.798518 23.798519v447.488c0 13.084444-10.714074 23.798519-23.798518 23.798519z m-632.035556 0c-13.084444 0-23.779556-10.714074-23.779555-23.798519V343.552c0-13.084444 10.695111-23.798519 23.779555-23.798519 13.084444 0 23.798519 10.695111 23.798519 23.798519v447.488c0 13.084444-10.581333 23.798519-23.798519 23.798519zM1053.866667 255.734519H43.956148a23.760593 23.760593 0 0 1-21.788444-33.431704l83.645629-188.112593a23.893333 23.893333 0 0 1 21.788445-14.165333h842.619259c9.40563 0 17.976889 5.594074 21.769482 14.165333l83.645629 188.112593a23.760593 23.760593 0 0 1-21.769481 33.431704zM80.592593 208.137481h936.637629l-62.464-140.515555H143.056593l-62.464 140.515555z" fill="#000000" p-id="730"></path></svg>